<svg width="742" height="64" viewBox="0 0 742 64" fill="none" xmlns="http://www.w3.org/2000/svg">
<path d="M17.0397 64.0007C12.8797 64.0007 9.49302 63.414 6.87969 62.2407C4.26635 61.0674 2.47969 59.3074 1.51969 56.9607C0.506354 54.614 0.346354 51.734 1.03969 48.3207C1.83969 44.534 3.49302 41.5474 5.99969 39.3607C8.55969 37.174 11.6264 35.6807 15.1997 34.8807C18.773 34.0274 22.7997 33.6007 27.2797 33.6007C31.7597 33.6007 35.4664 33.814 38.3997 34.2407C41.333 34.6674 43.9197 35.3074 46.1597 36.1607L44.0797 38.0807L45.2797 32.3207C45.4397 31.6274 45.5197 31.0407 45.5197 30.5607C45.5197 30.0807 45.3864 29.7074 45.1197 29.4407C44.853 29.1207 44.4264 28.9607 43.8397 28.9607C42.9864 28.9607 42.293 29.2807 41.7597 29.9207C41.2264 30.5607 40.853 31.3874 40.6397 32.4007H6.95969C7.81302 29.1474 9.59969 26.0274 12.3197 23.0407C15.093 20.0007 19.333 17.4407 25.0397 15.3607C30.7464 13.2807 38.1064 12.2407 47.1197 12.2407C56.3997 12.2407 63.5997 13.174 68.7197 15.0407C73.8397 16.854 77.1997 19.654 78.7997 23.4407C80.453 27.2274 80.6397 32.134 79.3597 38.1607L74.3197 62.0007H39.1197L39.6797 59.1207L41.5997 52.8007H41.3597C38.5864 56.4274 35.1464 59.2007 31.0397 61.1207C26.933 63.0407 22.2664 64.0007 17.0397 64.0007ZM38.5597 46.8807C39.3064 46.8807 39.973 46.6674 40.5597 46.2407C41.1997 45.814 41.7864 45.1207 42.3197 44.1607C42.853 43.2007 43.2797 41.9474 43.5997 40.4007C43.013 40.1874 42.453 40.0274 41.9197 39.9207C41.4397 39.7607 40.9064 39.6807 40.3197 39.6807C39.6797 39.6807 39.093 39.8407 38.5597 40.1607C38.0797 40.4274 37.6797 40.8274 37.3597 41.3607C37.0397 41.8407 36.7997 42.4274 36.6397 43.1207C36.533 43.5474 36.4797 43.8674 36.4797 44.0807C36.4264 44.7207 36.453 45.254 36.5597 45.6807C36.6664 46.1074 36.8797 46.4274 37.1997 46.6407C37.573 46.8007 38.0264 46.8807 38.5597 46.8807Z" fill="white"/>
<path d="M98.4759 64.0007C93.9426 64.0007 90.1559 62.9874 87.1159 60.9607C84.0759 58.934 81.9959 56.0274 80.8759 52.2407C79.7559 48.454 79.7293 44.0007 80.7959 38.8807L81.1159 37.2807C82.1826 32.214 84.0759 27.7874 86.7959 24.0007C89.5693 20.214 92.9026 17.3074 96.7959 15.2807C100.743 13.254 104.983 12.2407 109.516 12.2407C114.316 12.2407 118.289 13.1474 121.436 14.9607C124.636 16.774 126.823 19.334 127.996 22.6407H128.236L129.036 16.3207L132.316 0.720703H167.516L154.556 62.0007H119.356L119.836 59.6007L121.756 53.6007H121.516C118.903 56.9607 115.596 59.5474 111.596 61.3607C107.649 63.1207 103.276 64.0007 98.4759 64.0007ZM119.116 44.0007C119.916 44.0007 120.663 43.814 121.356 43.4407C122.103 43.014 122.743 42.4274 123.276 41.6807C123.809 40.8807 124.183 39.9474 124.396 38.8807L124.716 37.2807C124.929 36.3207 124.929 35.4674 124.716 34.7207C124.556 33.9207 124.209 33.3074 123.676 32.8807C123.143 32.454 122.476 32.2407 121.676 32.2407C120.876 32.2407 120.103 32.454 119.356 32.8807C118.609 33.3074 117.969 33.9207 117.436 34.7207C116.956 35.5207 116.609 36.4007 116.396 37.3607L116.076 38.9607C115.863 39.974 115.836 40.8807 115.996 41.6807C116.156 42.4274 116.503 43.014 117.036 43.4407C117.623 43.814 118.316 44.0007 119.116 44.0007Z" fill="white"/>
<path d="M179.123 64.0007C174.589 64.0007 170.803 62.9874 167.763 60.9607C164.723 58.934 162.643 56.0274 161.523 52.2407C160.403 48.454 160.376 44.0007 161.443 38.8807L161.763 37.2807C162.829 32.214 164.723 27.7874 167.443 24.0007C170.216 20.214 173.549 17.3074 177.443 15.2807C181.389 13.254 185.629 12.2407 190.163 12.2407C194.963 12.2407 198.936 13.1474 202.083 14.9607C205.283 16.774 207.469 19.334 208.643 22.6407H208.883L209.683 16.3207L212.963 0.720703H248.163L235.203 62.0007H200.003L200.483 59.6007L202.403 53.6007H202.163C199.549 56.9607 196.243 59.5474 192.243 61.3607C188.296 63.1207 183.923 64.0007 179.123 64.0007ZM199.763 44.0007C200.563 44.0007 201.309 43.814 202.003 43.4407C202.749 43.014 203.389 42.4274 203.923 41.6807C204.456 40.8807 204.829 39.9474 205.043 38.8807L205.363 37.2807C205.576 36.3207 205.576 35.4674 205.363 34.7207C205.203 33.9207 204.856 33.3074 204.323 32.8807C203.789 32.454 203.123 32.2407 202.323 32.2407C201.523 32.2407 200.749 32.454 200.003 32.8807C199.256 33.3074 198.616 33.9207 198.083 34.7207C197.603 35.5207 197.256 36.4007 197.043 37.3607L196.723 38.9607C196.509 39.974 196.483 40.8807 196.643 41.6807C196.803 42.4274 197.149 43.014 197.683 43.4407C198.269 43.814 198.963 44.0007 199.763 44.0007Z" fill="white"/>
<path d="M302.363 64.0007C296.923 64.0007 292.523 63.1474 289.163 61.4407C285.803 59.6807 283.537 57.0674 282.363 53.6007C281.19 50.134 281.163 45.7874 282.283 40.5607L283.563 34.2407H277.963L282.203 14.2407H287.803L289.803 5.1207H325.003L323.003 14.2407H334.043L329.803 34.2407H318.763L317.723 39.2007C317.35 41.1207 317.43 42.454 317.963 43.2007C318.497 43.9474 319.51 44.3207 321.003 44.3207C323.297 44.3207 325.59 44.054 327.883 43.5207L324.923 61.2807C321.403 62.1874 317.857 62.854 314.283 63.2807C310.763 63.7607 306.79 64.0007 302.363 64.0007Z" fill="white"/>
<path d="M364.592 64.0007C355.952 64.0007 348.832 63.0407 343.232 61.1207C337.685 59.1474 333.765 56.2407 331.472 52.4007C329.232 48.5074 328.698 43.7607 329.872 38.1607L330.192 36.5607C331.312 31.4407 333.685 27.0674 337.312 23.4407C340.938 19.814 345.818 17.0407 351.952 15.1207C358.138 13.2007 365.498 12.2407 374.032 12.2407C382.672 12.2407 389.765 13.2274 395.312 15.2007C400.912 17.174 404.832 20.1074 407.072 24.0007C409.365 27.8407 409.925 32.5607 408.752 38.1607L408.432 39.7607C407.312 44.934 404.938 49.334 401.312 52.9607C397.685 56.534 392.805 59.2807 386.672 61.2007C380.538 63.0674 373.178 64.0007 364.592 64.0007ZM368.032 44.0007C368.885 44.0007 369.658 43.8407 370.352 43.5207C371.098 43.1474 371.712 42.5874 372.192 41.8407C372.725 41.094 373.098 40.134 373.312 38.9607L373.632 37.3607C373.845 36.4007 373.845 35.5207 373.632 34.7207C373.472 33.9207 373.125 33.3074 372.592 32.8807C372.058 32.454 371.392 32.2407 370.592 32.2407C369.738 32.2407 368.965 32.4274 368.272 32.8007C367.578 33.174 366.965 33.7607 366.432 34.5607C365.898 35.3074 365.525 36.2407 365.312 37.3607L364.992 38.9607C364.778 39.974 364.752 40.8807 364.912 41.6807C365.072 42.4274 365.418 43.014 365.952 43.4407C366.538 43.814 367.232 44.0007 368.032 44.0007Z" fill="white"/>
<path d="M478.835 64.0007C469.875 64.0007 462.675 63.0674 457.235 61.2007C451.849 59.334 448.115 56.534 446.035 52.8007C444.009 49.014 443.609 44.2407 444.835 38.4807L445.155 36.8807C446.329 31.4407 448.729 26.9074 452.355 23.2807C455.982 19.6007 460.835 16.854 466.915 15.0407C473.049 13.174 480.435 12.2407 489.075 12.2407C497.555 12.2407 504.382 13.1207 509.555 14.8807C514.782 16.5874 518.462 19.2274 520.595 22.8007C522.782 26.3207 523.475 30.8007 522.675 36.2407H488.755C488.755 35.334 488.622 34.5874 488.355 34.0007C488.089 33.414 487.689 32.9874 487.155 32.7207C486.675 32.4007 486.062 32.2407 485.315 32.2407C484.355 32.2407 483.502 32.454 482.755 32.8807C482.062 33.254 481.475 33.8407 480.995 34.6407C480.569 35.3874 480.222 36.294 479.955 37.3607L479.635 38.9607C479.369 40.0274 479.315 40.934 479.475 41.6807C479.635 42.4274 479.982 43.014 480.515 43.4407C481.049 43.814 481.769 44.0007 482.675 44.0007C483.422 44.0007 484.115 43.894 484.755 43.6807C485.395 43.414 485.982 43.0407 486.515 42.5607C487.049 42.0274 487.502 41.3607 487.875 40.5607H521.795C520.302 45.894 517.742 50.294 514.115 53.7607C510.489 57.174 505.742 59.734 499.875 61.4407C494.062 63.1474 487.049 64.0007 478.835 64.0007Z" fill="white"/>
<path d="M536.043 64.0007C531.883 64.0007 528.496 63.414 525.883 62.2407C523.269 61.0674 521.483 59.3074 520.523 56.9607C519.509 54.614 519.349 51.734 520.043 48.3207C520.843 44.534 522.496 41.5474 525.003 39.3607C527.563 37.174 530.629 35.6807 534.203 34.8807C537.776 34.0274 541.803 33.6007 546.283 33.6007C550.763 33.6007 554.469 33.814 557.403 34.2407C560.336 34.6674 562.923 35.3074 565.163 36.1607L563.083 38.0807L564.283 32.3207C564.443 31.6274 564.523 31.0407 564.523 30.5607C564.523 30.0807 564.389 29.7074 564.123 29.4407C563.856 29.1207 563.429 28.9607 562.843 28.9607C561.989 28.9607 561.296 29.2807 560.763 29.9207C560.229 30.5607 559.856 31.3874 559.643 32.4007H525.963C526.816 29.1474 528.603 26.0274 531.323 23.0407C534.096 20.0007 538.336 17.4407 544.043 15.3607C549.749 13.2807 557.109 12.2407 566.123 12.2407C575.403 12.2407 582.603 13.174 587.723 15.0407C592.843 16.854 596.203 19.654 597.803 23.4407C599.456 27.2274 599.643 32.134 598.363 38.1607L593.323 62.0007H558.123L558.683 59.1207L560.603 52.8007H560.363C557.589 56.4274 554.149 59.2007 550.043 61.1207C545.936 63.0407 541.269 64.0007 536.043 64.0007ZM557.563 46.8807C558.309 46.8807 558.976 46.6674 559.563 46.2407C560.203 45.814 560.789 45.1207 561.323 44.1607C561.856 43.2007 562.283 41.9474 562.603 40.4007C562.016 40.1874 561.456 40.0274 560.923 39.9207C560.443 39.7607 559.909 39.6807 559.323 39.6807C558.683 39.6807 558.096 39.8407 557.563 40.1607C557.083 40.4274 556.683 40.8274 556.363 41.3607C556.043 41.8407 555.803 42.4274 555.643 43.1207C555.536 43.5474 555.483 43.8674 555.483 44.0807C555.429 44.7207 555.456 45.254 555.563 45.6807C555.669 46.1074 555.883 46.4274 556.203 46.6407C556.576 46.8007 557.029 46.8807 557.563 46.8807Z" fill="white"/>
<path d="M606.999 14.2407H642.199L641.559 17.5207L639.719 23.4407H640.439L638.599 25.7607C640.199 22.8807 641.932 20.454 643.799 18.4807C645.719 16.454 647.879 14.9074 650.279 13.8407C652.679 12.774 655.372 12.2407 658.359 12.2407C660.919 12.2407 663.132 12.5074 664.999 13.0407L660.279 35.2007C656.652 34.8274 653.212 34.6407 649.959 34.6407C647.239 34.6407 644.919 35.0407 642.999 35.8407C641.079 36.5874 639.479 37.8674 638.199 39.6807C636.919 41.4407 635.959 43.7874 635.319 46.7207L632.119 62.0007H596.919L606.999 14.2407Z" fill="white"/>
<path d="M683.588 64.0007C678.148 64.0007 673.748 63.1474 670.388 61.4407C667.028 59.6807 664.762 57.0674 663.588 53.6007C662.415 50.134 662.388 45.7874 663.508 40.5607L664.788 34.2407H659.188L663.428 14.2407H669.028L671.028 5.1207H706.228L704.228 14.2407H715.268L711.028 34.2407H699.988L698.948 39.2007C698.575 41.1207 698.655 42.454 699.188 43.2007C699.722 43.9474 700.735 44.3207 702.228 44.3207C704.522 44.3207 706.815 44.054 709.108 43.5207L706.148 61.2807C702.628 62.1874 699.082 62.854 695.508 63.2807C691.988 63.7607 688.015 64.0007 683.588 64.0007Z" fill="white"/>
<path d="M721.897 64.0007C715.977 64.0007 711.843 63.1474 709.497 61.4407C707.097 59.6807 706.297 56.9874 707.097 53.3607C707.843 49.7874 709.763 47.1474 712.857 45.4407C716.003 43.6807 720.537 42.8007 726.457 42.8007C732.537 42.8007 736.723 43.654 739.017 45.3607C741.363 47.0674 742.163 49.734 741.417 53.3607C740.617 57.0407 738.67 59.734 735.577 61.4407C732.537 63.1474 727.977 64.0007 721.897 64.0007Z" fill="white"/>
</svg>
