<svg width="381" height="64" viewBox="0 0 381 64" fill="none" xmlns="http://www.w3.org/2000/svg">
<path d="M35.1235 64.0007C26.1635 64.0007 18.9635 63.0674 13.5235 61.2007C8.13679 59.334 4.40346 56.534 2.32346 52.8007C0.296791 49.014 -0.103209 44.2407 1.12346 38.4807L1.44346 36.8807C2.61679 31.4407 5.01679 26.9074 8.64346 23.2807C12.2701 19.6007 17.1235 16.854 23.2035 15.0407C29.3368 13.174 36.7235 12.2407 45.3635 12.2407C53.8435 12.2407 60.6701 13.1207 65.8435 14.8807C71.0701 16.5874 74.7501 19.2274 76.8835 22.8007C79.0701 26.3207 79.7635 30.8007 78.9635 36.2407H45.0435C45.0435 35.334 44.9101 34.5874 44.6435 34.0007C44.3768 33.414 43.9768 32.9874 43.4435 32.7207C42.9635 32.4007 42.3501 32.2407 41.6035 32.2407C40.6435 32.2407 39.7901 32.454 39.0435 32.8807C38.3501 33.254 37.7635 33.8407 37.2835 34.6407C36.8568 35.3874 36.5101 36.294 36.2435 37.3607L35.9235 38.9607C35.6568 40.0274 35.6035 40.934 35.7635 41.6807C35.9235 42.4274 36.2701 43.014 36.8035 43.4407C37.3368 43.814 38.0568 44.0007 38.9635 44.0007C39.7101 44.0007 40.4035 43.894 41.0435 43.6807C41.6835 43.414 42.2701 43.0407 42.8035 42.5607C43.3368 42.0274 43.7901 41.3607 44.1635 40.5607H78.0835C76.5901 45.894 74.0301 50.294 70.4035 53.7607C66.7768 57.174 62.0301 59.734 56.1635 61.4407C50.3501 63.1474 43.3368 64.0007 35.1235 64.0007Z" fill="white"/>
<path d="M88.411 0.720703H123.611L110.651 62.0007H75.451L88.411 0.720703Z" fill="white"/>
<path d="M152.373 64.0007C143.733 64.0007 136.613 63.0407 131.013 61.1207C125.467 59.1474 121.547 56.2407 119.253 52.4007C117.013 48.5074 116.48 43.7607 117.653 38.1607L117.973 36.5607C119.093 31.4407 121.467 27.0674 125.093 23.4407C128.72 19.814 133.6 17.0407 139.733 15.1207C145.92 13.2007 153.28 12.2407 161.813 12.2407C170.453 12.2407 177.547 13.2274 183.093 15.2007C188.693 17.174 192.613 20.1074 194.853 24.0007C197.147 27.8407 197.707 32.5607 196.533 38.1607L196.213 39.7607C195.093 44.934 192.72 49.334 189.093 52.9607C185.467 56.534 180.587 59.2807 174.453 61.2007C168.32 63.0674 160.96 64.0007 152.373 64.0007ZM155.813 44.0007C156.667 44.0007 157.44 43.8407 158.133 43.5207C158.88 43.1474 159.493 42.5874 159.973 41.8407C160.507 41.094 160.88 40.134 161.093 38.9607L161.413 37.3607C161.627 36.4007 161.627 35.5207 161.413 34.7207C161.253 33.9207 160.907 33.3074 160.373 32.8807C159.84 32.454 159.173 32.2407 158.373 32.2407C157.52 32.2407 156.747 32.4274 156.053 32.8007C155.36 33.174 154.747 33.7607 154.213 34.5607C153.68 35.3074 153.307 36.2407 153.093 37.3607L152.773 38.9607C152.56 39.974 152.533 40.8807 152.693 41.6807C152.853 42.4274 153.2 43.014 153.733 43.4407C154.32 43.814 155.013 44.0007 155.813 44.0007Z" fill="white"/>
<path d="M228.583 64.0007C220.103 64.0007 213.197 63.174 207.863 61.5207C202.583 59.814 198.903 57.5474 196.823 54.7207C194.797 51.894 194.183 48.7474 194.983 45.2807H226.263C226.103 46.294 226.21 47.094 226.583 47.6807C227.01 48.2674 227.623 48.694 228.423 48.9607C229.223 49.174 230.183 49.2807 231.303 49.2807C232.103 49.2807 232.743 49.2274 233.223 49.1207C233.757 48.9607 234.157 48.774 234.423 48.5607C234.69 48.3474 234.877 48.054 234.983 47.6807C235.143 46.8274 234.77 46.1874 233.863 45.7607C232.957 45.2807 231.73 44.934 230.183 44.7207C228.637 44.5074 226.477 44.3207 223.703 44.1607C218.263 43.7874 213.757 43.2274 210.183 42.4807C206.61 41.734 203.677 40.214 201.383 37.9207C199.09 35.574 198.423 32.1607 199.383 27.6807C200.023 24.694 201.65 22.054 204.263 19.7607C206.877 17.4674 210.903 15.654 216.343 14.3207C221.783 12.934 228.77 12.2407 237.303 12.2407C246.21 12.2407 253.197 13.094 258.263 14.8007C263.383 16.5074 266.823 18.694 268.583 21.3607C270.343 24.0274 270.957 26.934 270.423 30.0807H239.703C239.81 29.5474 239.757 29.0674 239.543 28.6407C239.33 28.214 238.877 27.8674 238.183 27.6007C237.543 27.334 236.61 27.2007 235.383 27.2007C234.69 27.2007 234.13 27.254 233.703 27.3607C233.277 27.414 232.93 27.5474 232.663 27.7607C232.397 27.974 232.237 28.2674 232.183 28.6407C232.077 29.1207 232.397 29.494 233.143 29.7607C233.89 30.0274 235.037 30.2674 236.583 30.4807C238.13 30.6407 239.783 30.8007 241.543 30.9607C247.303 31.3874 252.183 32.0007 256.183 32.8007C260.183 33.6007 263.517 35.2274 266.183 37.6807C268.903 40.134 269.783 43.6807 268.823 48.3207C268.077 51.894 266.103 54.854 262.903 57.2007C259.703 59.494 255.25 61.2007 249.543 62.3207C243.89 63.4407 236.903 64.0007 228.583 64.0007Z" fill="white"/>
<path d="M271.138 37.2007C272.365 31.6007 274.712 26.9607 278.178 23.2807C281.645 19.6007 286.392 16.854 292.418 15.0407C298.445 13.174 305.832 12.2407 314.578 12.2407C323.272 12.2407 330.312 13.2274 335.698 15.2007C341.085 17.174 344.792 20.1607 346.818 24.1607C348.898 28.1074 349.298 33.094 348.018 39.1207L347.698 40.7207H301.298L305.458 37.9207L304.818 40.7207C304.552 42.054 304.498 43.2007 304.658 44.1607C304.818 45.0674 305.192 45.7607 305.778 46.2407C306.365 46.6674 307.138 46.8807 308.098 46.8807C309.218 46.8807 310.178 46.5874 310.978 46.0007C311.778 45.3607 312.445 44.4007 312.978 43.1207H347.058C344.232 50.2674 339.432 55.5474 332.658 58.9607C325.938 62.3207 316.765 64.0007 305.138 64.0007C296.765 64.0007 289.832 63.014 284.338 61.0407C278.845 59.014 274.952 56.0007 272.658 52.0007C270.418 48.0007 269.912 43.0674 271.138 37.2007ZM302.738 34.0007H318.738L314.578 36.8007L315.458 32.3207C315.672 31.414 315.672 30.5874 315.458 29.8407C315.298 29.094 314.925 28.5074 314.338 28.0807C313.752 27.654 313.005 27.4407 312.098 27.4407C311.245 27.4407 310.445 27.654 309.698 28.0807C308.952 28.454 308.312 29.014 307.778 29.7607C307.245 30.5074 306.872 31.3607 306.658 32.3207L305.778 36.8007L302.738 34.0007Z" fill="white"/>
<path d="M360.238 64.0007C354.318 64.0007 350.184 63.1474 347.838 61.4407C345.438 59.6807 344.638 56.9874 345.438 53.3607C346.185 49.7874 348.105 47.1474 351.198 45.4407C354.345 43.6807 358.878 42.8007 364.798 42.8007C370.878 42.8007 375.065 43.654 377.358 45.3607C379.705 47.0674 380.505 49.734 379.758 53.3607C378.958 57.0407 377.011 59.734 373.918 61.4407C370.878 63.1474 366.318 64.0007 360.238 64.0007Z" fill="white"/>
</svg>
