<svg width="99" height="15" viewBox="0 0 99 15" fill="none" xmlns="http://www.w3.org/2000/svg">
<path d="M0 7.36C0 6.34667 0.186667 5.4 0.56 4.52C0.933333 3.62667 1.45333 2.84667 2.12 2.18C2.8 1.5 3.58 0.966666 4.46 0.58C5.35333 0.193333 6.30667 0 7.32 0C8.32 0 9.26667 0.193333 10.16 0.58C11.0533 0.953333 11.8333 1.48 12.5 2.16C13.18 2.84 13.7133 3.62667 14.1 4.52C14.4867 5.4 14.68 6.34667 14.68 7.36C14.68 8.33333 14.4933 9.26 14.12 10.14C13.76 11.02 13.2467 11.8067 12.58 12.5C11.9133 13.18 11.1333 13.72 10.24 14.12C9.34667 14.5067 8.37333 14.7 7.32 14.7C6.28 14.7 5.31333 14.5067 4.42 14.12C3.54 13.7333 2.76667 13.2067 2.1 12.54C1.44667 11.86 0.933333 11.08 0.56 10.2C0.186667 9.30667 0 8.36 0 7.36ZM7.34 1.56C6.40667 1.56 5.54 1.78667 4.74 2.24C3.94 2.68 3.28 3.28 2.76 4.04C2.25333 4.78667 1.94667 5.62667 1.84 6.56H12.88C12.7467 5.64 12.42 4.80667 11.9 4.06C11.3933 3.3 10.7467 2.69333 9.96 2.24C9.17333 1.78667 8.3 1.56 7.34 1.56ZM7.34 13.14C8.32667 13.14 9.20667 12.9133 9.98 12.46C10.7667 12.0067 11.4133 11.4067 11.92 10.66C12.4267 9.9 12.7467 9.06 12.88 8.14H1.82C1.95333 9.06 2.26667 9.9 2.76 10.66C3.26667 11.4067 3.91333 12.0067 4.7 12.46C5.48667 12.9133 6.36667 13.14 7.34 13.14Z" fill="white"/>
<path d="M15.1289 7.34C15.1289 6.3 15.3222 5.34 15.7089 4.46C16.0956 3.56667 16.6289 2.78667 17.3089 2.12C17.9889 1.45333 18.7689 0.933333 19.6489 0.56C20.5422 0.186667 21.4822 0 22.4689 0C23.5089 0 24.4756 0.2 25.3689 0.599999C26.2622 0.986667 27.0422 1.52 27.7089 2.2C28.3756 2.88 28.8956 3.66667 29.2689 4.56C29.6422 5.44 29.8289 6.37333 29.8289 7.36C29.8289 8.36 29.6356 9.30667 29.2489 10.2C28.8622 11.08 28.3289 11.86 27.6489 12.54C26.9822 13.22 26.2022 13.7533 25.3089 14.14C24.4156 14.5133 23.4689 14.7 22.4689 14.7C21.4289 14.7 20.4622 14.5067 19.5689 14.12C18.6756 13.7333 17.8956 13.2 17.2289 12.52C16.5756 11.84 16.0622 11.06 15.6889 10.18C15.3156 9.28667 15.1289 8.34 15.1289 7.34ZM16.8889 7.38C16.8889 8.14 17.0289 8.86667 17.3089 9.56C17.5889 10.2533 17.9822 10.8733 18.4889 11.42C18.9956 11.9533 19.5889 12.3733 20.2689 12.68C20.9489 12.9867 21.6822 13.14 22.4689 13.14C23.2556 13.14 23.9822 12.9867 24.6489 12.68C25.3289 12.36 25.9222 11.9333 26.4289 11.4C26.9356 10.8533 27.3289 10.2333 27.6089 9.54C27.9022 8.84667 28.0489 8.12 28.0489 7.36C28.0489 6.58667 27.9089 5.85333 27.6289 5.16C27.3489 4.45333 26.9556 3.83333 26.4489 3.3C25.9422 2.75333 25.3489 2.32667 24.6689 2.02C23.9889 1.71333 23.2556 1.56 22.4689 1.56C21.6689 1.56 20.9289 1.71333 20.2489 2.02C19.5822 2.32667 18.9956 2.75333 18.4889 3.3C17.9822 3.83333 17.5889 4.45333 17.3089 5.16C17.0289 5.85333 16.8889 6.59333 16.8889 7.38Z" fill="white"/>
<path d="M30.1973 14.5V0.22H41.6173V1.1L36.7773 7.26L42.0573 14.5H40.1573L35.7773 8.54L31.0973 14.5H30.1973ZM31.9773 1.8V7.88C31.9773 8.56 31.9707 9.18 31.9573 9.74C31.944 10.2867 31.924 10.7733 31.8973 11.2L39.1773 1.8H31.9773Z" fill="white"/>
<path d="M44.45 0.22V14.5H42.67V0.22H44.45Z" fill="white"/>
<path d="M45.2141 7.36C45.2141 6.34667 45.4007 5.4 45.7741 4.52C46.1474 3.62667 46.6674 2.84667 47.3341 2.18C48.0141 1.5 48.7941 0.966666 49.6741 0.58C50.5674 0.193333 51.5207 0 52.5341 0C53.5341 0 54.4807 0.193333 55.3741 0.58C56.2674 0.953333 57.0474 1.48 57.7141 2.16C58.3941 2.84 58.9274 3.62667 59.3141 4.52C59.7007 5.4 59.8941 6.34667 59.8941 7.36C59.8941 8.33333 59.7074 9.26 59.3341 10.14C58.9741 11.02 58.4607 11.8067 57.7941 12.5C57.1274 13.18 56.3474 13.72 55.4541 14.12C54.5607 14.5067 53.5874 14.7 52.5341 14.7C51.4941 14.7 50.5274 14.5067 49.6341 14.12C48.7541 13.7333 47.9807 13.2067 47.3141 12.54C46.6607 11.86 46.1474 11.08 45.7741 10.2C45.4007 9.30667 45.2141 8.36 45.2141 7.36ZM52.5541 1.56C51.6207 1.56 50.7541 1.78667 49.9541 2.24C49.1541 2.68 48.4941 3.28 47.9741 4.04C47.4674 4.78667 47.1607 5.62667 47.0541 6.56H58.0941C57.9607 5.64 57.6341 4.80667 57.1141 4.06C56.6074 3.3 55.9607 2.69333 55.1741 2.24C54.3874 1.78667 53.5141 1.56 52.5541 1.56ZM52.5541 13.14C53.5407 13.14 54.4207 12.9133 55.1941 12.46C55.9807 12.0067 56.6274 11.4067 57.1341 10.66C57.6407 9.9 57.9607 9.06 58.0941 8.14H47.0341C47.1674 9.06 47.4807 9.9 47.9741 10.66C48.4807 11.4067 49.1274 12.0067 49.9141 12.46C50.7007 12.9133 51.5807 13.14 52.5541 13.14Z" fill="white"/>
<path d="M60.343 7.34C60.343 6.3 60.5363 5.34 60.923 4.46C61.3096 3.56667 61.843 2.78667 62.523 2.12C63.203 1.45333 63.983 0.933333 64.863 0.56C65.7563 0.186667 66.6963 0 67.683 0C68.723 0 69.6896 0.2 70.583 0.599999C71.4763 0.986667 72.2563 1.52 72.923 2.2C73.5896 2.88 74.1096 3.66667 74.483 4.56C74.8563 5.44 75.043 6.37333 75.043 7.36C75.043 8.36 74.8496 9.30667 74.463 10.2C74.0763 11.08 73.543 11.86 72.863 12.54C72.1963 13.22 71.4163 13.7533 70.523 14.14C69.6296 14.5133 68.683 14.7 67.683 14.7C66.643 14.7 65.6763 14.5067 64.783 14.12C63.8896 13.7333 63.1096 13.2 62.443 12.52C61.7896 11.84 61.2763 11.06 60.903 10.18C60.5296 9.28667 60.343 8.34 60.343 7.34ZM62.103 7.38C62.103 8.14 62.243 8.86667 62.523 9.56C62.803 10.2533 63.1963 10.8733 63.703 11.42C64.2096 11.9533 64.803 12.3733 65.483 12.68C66.163 12.9867 66.8963 13.14 67.683 13.14C68.4696 13.14 69.1963 12.9867 69.863 12.68C70.543 12.36 71.1363 11.9333 71.643 11.4C72.1496 10.8533 72.543 10.2333 72.823 9.54C73.1163 8.84667 73.263 8.12 73.263 7.36C73.263 6.58667 73.123 5.85333 72.843 5.16C72.563 4.45333 72.1696 3.83333 71.663 3.3C71.1563 2.75333 70.563 2.32667 69.883 2.02C69.203 1.71333 68.4696 1.56 67.683 1.56C66.883 1.56 66.143 1.71333 65.463 2.02C64.7963 2.32667 64.2096 2.75333 63.703 3.3C63.1963 3.83333 62.803 4.45333 62.523 5.16C62.243 5.85333 62.103 6.59333 62.103 7.38Z" fill="white"/>
<path d="M75.3514 14.5H73.6714L78.5914 0.22H80.1714L85.0914 14.5H83.4114L80.3114 5.48C80.0981 4.85333 79.9114 4.3 79.7514 3.82C79.6047 3.32667 79.4847 2.90667 79.3914 2.56C79.3647 2.69333 79.3247 2.82667 79.2714 2.96C79.2314 3.09333 79.1914 3.23333 79.1514 3.38C79.1114 3.51333 78.7714 4.50667 78.1314 6.36C77.5047 8.21333 76.5781 10.9267 75.3514 14.5Z" fill="white"/>
<path d="M83.7086 7.34C83.7086 6.3 83.9019 5.34 84.2886 4.46C84.6753 3.56667 85.2086 2.78667 85.8886 2.12C86.5686 1.45333 87.3486 0.933333 88.2286 0.56C89.1219 0.186667 90.0619 0 91.0486 0C92.0886 0 93.0553 0.2 93.9486 0.599999C94.8419 0.986667 95.6219 1.52 96.2886 2.2C96.9553 2.88 97.4753 3.66667 97.8486 4.56C98.2219 5.44 98.4086 6.37333 98.4086 7.36C98.4086 8.36 98.2153 9.30667 97.8286 10.2C97.4419 11.08 96.9086 11.86 96.2286 12.54C95.5619 13.22 94.7819 13.7533 93.8886 14.14C92.9953 14.5133 92.0486 14.7 91.0486 14.7C90.0086 14.7 89.0419 14.5067 88.1486 14.12C87.2553 13.7333 86.4753 13.2 85.8086 12.52C85.1553 11.84 84.6419 11.06 84.2686 10.18C83.8953 9.28667 83.7086 8.34 83.7086 7.34ZM85.4686 7.38C85.4686 8.14 85.6086 8.86667 85.8886 9.56C86.1686 10.2533 86.5619 10.8733 87.0686 11.42C87.5753 11.9533 88.1686 12.3733 88.8486 12.68C89.5286 12.9867 90.2619 13.14 91.0486 13.14C91.8353 13.14 92.5619 12.9867 93.2286 12.68C93.9086 12.36 94.5019 11.9333 95.0086 11.4C95.5153 10.8533 95.9086 10.2333 96.1886 9.54C96.4819 8.84667 96.6286 8.12 96.6286 7.36C96.6286 6.58667 96.4886 5.85333 96.2086 5.16C95.9286 4.45333 95.5353 3.83333 95.0286 3.3C94.5219 2.75333 93.9286 2.32667 93.2486 2.02C92.5686 1.71333 91.8353 1.56 91.0486 1.56C90.2486 1.56 89.5086 1.71333 88.8286 2.02C88.1619 2.32667 87.5753 2.75333 87.0686 3.3C86.5619 3.83333 86.1686 4.45333 85.8886 5.16C85.6086 5.85333 85.4686 6.59333 85.4686 7.38ZM89.4486 7.36C89.4486 6.92 89.6019 6.54 89.9086 6.22C90.2286 5.9 90.6086 5.74 91.0486 5.74C91.5019 5.74 91.8819 5.9 92.1886 6.22C92.5086 6.54 92.6686 6.92 92.6686 7.36C92.6686 7.78667 92.5086 8.16 92.1886 8.48C91.8819 8.8 91.5019 8.96 91.0486 8.96C90.6086 8.96 90.2286 8.8 89.9086 8.48C89.6019 8.16 89.4486 7.78667 89.4486 7.36Z" fill="white"/>
</svg>
